<svg xmlns="http://www.w3.org/2000/svg" viewBox="0 0 160 160">
  <ellipse cx="80" cy="139" rx="45" ry="9" fill="#146b73" opacity=".18"/>
  <path d="M42 126c-12-22-5-72 11-88 17-16 50-12 63 8 14 21 13 64-2 81-15 17-61 16-72-1Z" fill="#8bd36c"/>
  <path d="M79 36C68 20 69 11 79 5c10 7 12 17 7 31" fill="#67b75b"/>
  <path d="M82 20c12-11 22-13 30-7-4 12-13 18-28 18" fill="#70c967"/>
  <circle cx="67" cy="77" r="4" fill="#28405a"/>
  <circle cx="95" cy="77" r="4" fill="#28405a"/>
  <path d="M74 91c5 5 10 5 15 0" fill="none" stroke="#28405a" stroke-linecap="round" stroke-width="4"/>
  <circle cx="58" cy="92" r="5" fill="#ff9b9f"/>
  <circle cx="105" cy="92" r="5" fill="#ff9b9f"/>
  <path d="M42 107c-14-6-23-4-29 4 7 10 18 12 31 5m72-8c15-6 24-4 30 4-8 10-18 12-31 5" fill="#8bd36c"/>
  <path d="M63 111c12-9 23-9 34 0-5 13-12 19-18 19s-12-6-16-19Z" fill="#fff0af"/>
  <path d="M80 111v17" stroke="#e9b747" stroke-linecap="round" stroke-width="3"/>
</svg>
