<svg xmlns="http://www.w3.org/2000/svg" viewBox="0 0 160 160">
  <ellipse cx="80" cy="139" rx="46" ry="9" fill="#146b73" opacity=".18"/>
  <path d="M43 125c-12-22-7-67 8-84 16-18 55-14 68 7 12 20 8 66-8 81-16 15-57 13-68-4Z" fill="#ff866c"/>
  <path d="M43 62c-16-2-24-7-31-18 14 2 24 6 31 13m73-6c16-10 27-12 38-7-10 11-21 16-35 17" fill="#ffbd4a"/>
  <path d="M53 37c10-14 17-20 28-26-2 13-7 23-18 30m38 0c8-14 15-21 25-27-1 15-6 25-17 33" fill="#ffbd4a"/>
  <circle cx="68" cy="77" r="4" fill="#26354d"/>
  <circle cx="96" cy="77" r="4" fill="#26354d"/>
  <path d="M75 91c5 5 10 5 15 0" fill="none" stroke="#26354d" stroke-linecap="round" stroke-width="4"/>
  <path d="M40 111c-12 3-20 10-27 20 15 1 26-3 34-12" fill="#ffbd4a"/>
  <path d="M103 116c10 5 19 6 29 2" fill="none" stroke="#26354d" stroke-linecap="round" stroke-width="5"/>
</svg>
