<svg xmlns="http://www.w3.org/2000/svg" viewBox="0 0 160 160">
  <ellipse cx="79" cy="139" rx="44" ry="9" fill="#146b73" opacity=".18"/>
  <path d="M46 125c-11-23-7-70 7-87 14-16 48-16 64 3 15 19 15 64 2 83-13 19-61 20-73 1Z" fill="#a987e7"/>
  <path d="M50 48c-9-15-8-28 2-39 13 8 18 20 15 35m46 2c9-15 8-27-2-38-12 8-17 20-14 35" fill="#6f57b2"/>
  <circle cx="68" cy="77" r="4" fill="#2d2445"/>
  <circle cx="96" cy="77" r="4" fill="#2d2445"/>
  <path d="M75 91c5 4 10 4 15 0" fill="none" stroke="#2d2445" stroke-linecap="round" stroke-width="4"/>
  <path d="m110 96 30-21 6 7-29 25Z" fill="#ffe48a"/>
  <path d="m117 107 12 13" stroke="#6f57b2" stroke-linecap="round" stroke-width="6"/>
  <path d="M50 115c-12 2-21 8-28 17 14 2 26-1 34-10" fill="#6f57b2"/>
  <circle cx="59" cy="92" r="5" fill="#ff9bb5"/>
</svg>
