<svg xmlns="http://www.w3.org/2000/svg" viewBox="0 0 512 512" role="img" aria-label="Hemophage relic enemy">
  <defs><radialGradient id="g" cx="50%" cy="48%" r="58%"><stop offset="0" stop-color="#b98594" stop-opacity=".48"/><stop offset="1" stop-color="#121017" stop-opacity="0"/></radialGradient></defs>
  <circle cx="256" cy="248" r="178" fill="url(#g)"/>
  <g fill="none" stroke="#d8d1bc" stroke-linecap="round" stroke-linejoin="round">
    <circle cx="256" cy="248" r="152" stroke-opacity=".25" stroke-width="3"/>
    <path d="M256 42v428M112 248h288" stroke-opacity=".34" stroke-width="2"/>
    <path d="M256 114c-54 40-78 90-68 150 10 62 42 106 68 138 26-32 58-76 68-138 10-60-14-110-68-150z" fill="#171015" fill-opacity=".82" stroke-width="5"/>
    <path d="M256 180c-20-36-72-22-72 24 0 52 46 82 72 112 26-30 72-60 72-112 0-46-52-60-72-24z" stroke="#b98594" stroke-width="6"/>
    <path d="M206 244h-44M306 244h44M256 138l22-44-22-44-22 44zM204 384l-42 64M308 384l42 64" stroke-width="4"/>
    <path d="M194 320c38-20 86-20 124 0" stroke-opacity=".52" stroke-width="3"/>
  </g>
  <g fill="#b98594" opacity=".6"><circle cx="156" cy="248" r="4"/><circle cx="356" cy="248" r="4"/><rect x="250" y="430" width="12" height="12" transform="rotate(45 256 436)"/></g>
</svg>
